<?xml version="1.0" encoding="UTF-8"?>
<!DOCTYPE svg PUBLIC "-//W3C//DTD SVG 1.1//EN" "http://www.w3.org/Graphics/SVG/1.1/DTD/svg11.dtd">
<svg xmlns="http://www.w3.org/2000/svg" version="1.1" width="1417px" height="705px" style="shape-rendering:geometricPrecision; text-rendering:geometricPrecision; image-rendering:optimizeQuality; fill-rule:evenodd; clip-rule:evenodd" xmlns:xlink="http://www.w3.org/1999/xlink">
<g><path style="opacity:0.999" fill="#f7961c" d="M 1263.5,-0.5 C 1274.5,-0.5 1285.5,-0.5 1296.5,-0.5C 1333.99,6.33418 1365.49,24.0008 1391,52.5C 1400.13,63.1145 1408.63,74.1145 1416.5,85.5C 1416.5,291.833 1416.5,498.167 1416.5,704.5C 944.167,704.5 471.833,704.5 -0.5,704.5C -0.5,695.167 -0.5,685.833 -0.5,676.5C 2.74476,638.264 15.5781,603.597 38,572.5C 51.3184,556.509 66.4851,542.676 83.5,531C 97.8325,521.498 112.499,512.498 127.5,504C 162.409,487.044 197.409,470.378 232.5,454C 269.291,428.876 300.458,398.042 326,361.5C 340.338,340.165 353.672,318.165 366,295.5C 382,263.5 398,231.5 414,199.5C 427.964,172.228 444.298,146.561 463,122.5C 518.181,58.8479 587.348,34.6812 670.5,50C 682.96,52.8649 695.293,56.1982 707.5,60C 743.943,73.3888 780.276,87.0555 816.5,101C 864.36,118.755 913.693,125.422 964.5,121C 989.001,118.291 1012.67,112.291 1035.5,103C 1049.29,96.9402 1062.95,90.6069 1076.5,84C 1113.69,62.9038 1151.36,42.5704 1189.5,23C 1213.17,11.6092 1237.83,3.77582 1263.5,-0.5 Z"/></g>
</svg>
