<?xml version="1.0" encoding="UTF-8"?>
<!DOCTYPE svg PUBLIC "-//W3C//DTD SVG 1.1//EN" "http://www.w3.org/Graphics/SVG/1.1/DTD/svg11.dtd">
<svg xmlns="http://www.w3.org/2000/svg" version="1.1" width="77px" height="77px" style="shape-rendering:geometricPrecision; text-rendering:geometricPrecision; image-rendering:optimizeQuality; fill-rule:evenodd; clip-rule:evenodd" xmlns:xlink="http://www.w3.org/1999/xlink">
<g><path style="opacity:0.95" fill="#fefffe" d="M 34.5,-0.5 C 36.8333,-0.5 39.1667,-0.5 41.5,-0.5C 43.9411,1.02965 45.1078,3.36298 45,6.5C 45.4997,14.8267 45.6664,23.16 45.5,31.5C 54.8393,31.3335 64.1726,31.5002 73.5,32C 74.6906,32.6979 75.6906,33.5313 76.5,34.5C 76.5,36.8333 76.5,39.1667 76.5,41.5C 75.6906,42.4687 74.6906,43.3021 73.5,44C 64.1726,44.4998 54.8393,44.6665 45.5,44.5C 45.6664,53.1731 45.4998,61.8397 45,70.5C 44.5762,73.0254 43.4095,75.0254 41.5,76.5C 39.1667,76.5 36.8333,76.5 34.5,76.5C 33.5313,75.6906 32.6979,74.6906 32,73.5C 31.5002,63.8391 31.3335,54.1724 31.5,44.5C 21.8276,44.6665 12.1609,44.4998 2.5,44C 1.30943,43.3021 0.309426,42.4687 -0.5,41.5C -0.5,39.1667 -0.5,36.8333 -0.5,34.5C 0.309426,33.5313 1.30943,32.6979 2.5,32C 12.1609,31.5002 21.8276,31.3335 31.5,31.5C 31.3335,21.8276 31.5002,12.1609 32,2.5C 32.6979,1.30943 33.5313,0.309426 34.5,-0.5 Z"/></g>
</svg>
