<?xml version="1.0" encoding="UTF-8"?>
<!DOCTYPE svg PUBLIC "-//W3C//DTD SVG 1.1//EN" "http://www.w3.org/Graphics/SVG/1.1/DTD/svg11.dtd">
<svg xmlns="http://www.w3.org/2000/svg" version="1.1" width="474px" height="147px" style="shape-rendering:geometricPrecision; text-rendering:geometricPrecision; image-rendering:optimizeQuality; fill-rule:evenodd; clip-rule:evenodd" xmlns:xlink="http://www.w3.org/1999/xlink">
<g><path style="opacity:0.853" fill="#fefffe" d="M 3.5,-0.5 C 5.83333,-0.5 8.16667,-0.5 10.5,-0.5C 15.2244,2.84395 16.391,7.17728 14,12.5C 8.75966,16.5921 3.92632,16.2588 -0.5,11.5C -0.5,8.5 -0.5,5.5 -0.5,2.5C 1.23033,1.97439 2.56366,0.974395 3.5,-0.5 Z"/></g>
<g><path style="opacity:0.864" fill="#fefffe" d="M 80.5,-0.5 C 82.1667,-0.5 83.8333,-0.5 85.5,-0.5C 91.4024,2.13291 92.9024,6.46624 90,12.5C 84.5586,16.9258 79.8919,16.2591 76,10.5C 74.7758,5.62597 76.2758,1.9593 80.5,-0.5 Z"/></g>
<g><path style="opacity:0.869" fill="#fefffe" d="M 156.5,-0.5 C 158.5,-0.5 160.5,-0.5 162.5,-0.5C 167.194,2.07267 168.694,6.07267 167,11.5C 162.75,16.3614 158.083,16.6947 153,12.5C 150.996,7.34057 152.163,3.00723 156.5,-0.5 Z"/></g>
<g><path style="opacity:0.859" fill="#fefffe" d="M 233.5,-0.5 C 235.5,-0.5 237.5,-0.5 239.5,-0.5C 244.822,3.09954 245.822,7.7662 242.5,13.5C 234.984,17.6899 230.318,15.6899 228.5,7.5C 228.672,3.80722 230.339,1.14056 233.5,-0.5 Z"/></g>
<g><path style="opacity:0.866" fill="#fefffe" d="M 309.5,-0.5 C 311.833,-0.5 314.167,-0.5 316.5,-0.5C 320.924,3.55179 321.591,8.21845 318.5,13.5C 311.566,17.1678 306.9,15.3344 304.5,8C 304.796,6.11177 305.296,4.27844 306,2.5C 307.518,1.83663 308.685,0.836628 309.5,-0.5 Z"/></g>
<g><path style="opacity:0.858" fill="#fefffe" d="M 386.5,-0.5 C 388.5,-0.5 390.5,-0.5 392.5,-0.5C 398.024,3.62854 398.691,8.46188 394.5,14C 385.354,17.1772 381.188,14.0105 382,4.5C 383.025,2.31305 384.525,0.646381 386.5,-0.5 Z"/></g>
<g><path style="opacity:0.853" fill="#fefffe" d="M 462.5,-0.5 C 464.833,-0.5 467.167,-0.5 469.5,-0.5C 470.833,0.833333 472.167,2.16667 473.5,3.5C 473.5,6.16667 473.5,8.83333 473.5,11.5C 469.069,16.3906 464.236,16.7239 459,12.5C 456.907,7.20137 458.073,2.86804 462.5,-0.5 Z"/></g>
<g><path style="opacity:0.862" fill="#fefffe" d="M 159.5,64.5 C 167.321,66.2268 169.654,70.8934 166.5,78.5C 158.984,83.4062 153.984,81.5729 151.5,73C 152.385,68.2865 155.051,65.4531 159.5,64.5 Z"/></g>
<g><path style="opacity:0.867" fill="#fefffe" d="M -0.5,76.5 C -0.5,73.8333 -0.5,71.1667 -0.5,68.5C 3.01855,65.7213 7.01855,64.888 11.5,66C 16.6888,71.7321 16.0222,76.7321 9.5,81C 5.01653,81.9231 1.6832,80.4231 -0.5,76.5 Z"/></g>
<g><path style="opacity:0.863" fill="#fefffe" d="M 79.5,65.5 C 91.0438,65.1926 94.0438,70.0259 88.5,80C 79.3976,83.2002 75.2309,80.0335 76,70.5C 76.6695,68.4098 77.8361,66.7432 79.5,65.5 Z"/></g>
<g><path style="opacity:0.862" fill="#fefffe" d="M 232.5,65.5 C 243.795,65.2622 246.795,70.0955 241.5,80C 237.372,82.1104 233.539,81.6104 230,78.5C 227.606,73.5272 228.44,69.1938 232.5,65.5 Z"/></g>
<g><path style="opacity:0.861" fill="#fefffe" d="M 309.5,65.5 C 318.889,64.3872 322.389,68.3872 320,77.5C 314.609,83.0691 309.609,82.7358 305,76.5C 304.083,71.7317 305.583,68.065 309.5,65.5 Z"/></g>
<g><path style="opacity:0.863" fill="#fefffe" d="M 385.5,65.5 C 395.976,64.8024 399.309,69.3024 395.5,79C 391.122,82.487 386.955,82.3203 383,78.5C 380.458,73.4379 381.292,69.1046 385.5,65.5 Z"/></g>
<g><path style="opacity:0.863" fill="#fefffe" d="M 473.5,69.5 C 473.5,72.1667 473.5,74.8333 473.5,77.5C 466.419,83.7124 461.085,82.5457 457.5,74C 458.421,66.8655 462.421,64.1988 469.5,66C 471.027,67.0319 472.36,68.1986 473.5,69.5 Z"/></g>
<g><path style="opacity:0.862" fill="#fefffe" d="M 11.5,146.5 C 8.83333,146.5 6.16667,146.5 3.5,146.5C 1.83333,145.5 0.5,144.167 -0.5,142.5C -0.5,139.5 -0.5,136.5 -0.5,133.5C 6.75338,128.478 12.0867,129.978 15.5,138C 15.1307,141.363 13.7973,144.196 11.5,146.5 Z"/></g>
<g><path style="opacity:0.866" fill="#fefffe" d="M 88.5,146.5 C 85.5,146.5 82.5,146.5 79.5,146.5C 74.524,142.101 74.1907,137.267 78.5,132C 87.6261,128.804 91.7927,131.971 91,141.5C 89.9055,143.078 89.0722,144.745 88.5,146.5 Z"/></g>
<g><path style="opacity:0.858" fill="#fefffe" d="M 164.5,146.5 C 161.5,146.5 158.5,146.5 155.5,146.5C 149.312,139.252 150.645,133.918 159.5,130.5C 167.061,131.763 169.561,136.096 167,143.5C 165.955,144.373 165.122,145.373 164.5,146.5 Z"/></g>
<g><path style="opacity:0.858" fill="#fefffe" d="M 240.5,146.5 C 237.833,146.5 235.167,146.5 232.5,146.5C 227.544,142.19 227.211,137.356 231.5,132C 240.914,129.332 244.914,132.832 243.5,142.5C 242.714,144.041 241.714,145.374 240.5,146.5 Z"/></g>
<g><path style="opacity:0.869" fill="#fefffe" d="M 317.5,146.5 C 314.5,146.5 311.5,146.5 308.5,146.5C 304.849,143.055 304.015,139.055 306,134.5C 310.671,129.335 315.337,129.335 320,134.5C 321.112,138.981 320.279,142.981 317.5,146.5 Z"/></g>
<g><path style="opacity:0.856" fill="#fefffe" d="M 393.5,146.5 C 390.5,146.5 387.5,146.5 384.5,146.5C 384.315,144.804 383.481,143.471 382,142.5C 380.249,135.992 382.582,131.992 389,130.5C 395.649,131.789 398.316,135.789 397,142.5C 395.624,143.705 394.458,145.038 393.5,146.5 Z"/></g>
<g><path style="opacity:0.863" fill="#fefffe" d="M 473.5,135.5 C 473.5,138.167 473.5,140.833 473.5,143.5C 472.167,144.167 471.167,145.167 470.5,146.5C 467.5,146.5 464.5,146.5 461.5,146.5C 457.15,142.759 456.483,138.425 459.5,133.5C 464.969,129.13 469.636,129.797 473.5,135.5 Z"/></g>
</svg>
