<?xml version="1.0" encoding="UTF-8"?>
<!DOCTYPE svg PUBLIC "-//W3C//DTD SVG 1.1//EN" "http://www.w3.org/Graphics/SVG/1.1/DTD/svg11.dtd">
<svg xmlns="http://www.w3.org/2000/svg" version="1.1" width="2035px" height="1617px" style="shape-rendering:geometricPrecision; text-rendering:geometricPrecision; image-rendering:optimizeQuality; fill-rule:evenodd; clip-rule:evenodd" xmlns:xlink="http://www.w3.org/1999/xlink">
<g><path style="opacity:0.999" fill="#f7961c" d="M -0.5,-0.5 C 650.167,-0.5 1300.83,-0.5 1951.5,-0.5C 1973.59,51.2585 1992.42,104.258 2008,158.5C 2021.69,207.79 2030.53,257.79 2034.5,308.5C 2034.5,330.167 2034.5,351.833 2034.5,373.5C 2030.75,434.59 2013.92,491.924 1984,545.5C 1963.8,577.642 1938.64,605.475 1908.5,629C 1861,665.274 1810,696.274 1755.5,722C 1709.05,743.06 1662.71,764.393 1616.5,786C 1566.17,818.976 1521.34,858.476 1482,904.5C 1433.35,964.406 1391.69,1029.07 1357,1098.5C 1328.24,1156.35 1299.24,1214.02 1270,1271.5C 1246.22,1316.75 1218.22,1359.08 1186,1398.5C 1096.35,1500.04 983.852,1543.88 848.5,1530C 815.166,1525.17 782.5,1517.5 750.5,1507C 729.682,1500.06 709.015,1492.73 688.5,1485C 647.324,1468.61 605.99,1452.61 564.5,1437C 508.848,1416.09 451.514,1402.09 392.5,1395C 316.904,1386.66 243.237,1394.99 171.5,1420C 151.257,1427.75 131.257,1436.08 111.5,1445C 73.6405,1463.76 36.3072,1483.26 -0.5,1503.5C -0.5,1002.17 -0.5,500.833 -0.5,-0.5 Z"/></g>
</svg>
